<svg xmlns="http://www.w3.org/2000/svg" viewBox="0 0 8.36 9.88">
  <path
    d="M9.15,2.59A2.63,2.63,0,0,0,6.94,1.06H4.67A2.63,2.63,0,0,0,2.46,2.59,6.81,6.81,0,0,0,1.63,6a6.81,6.81,0,0,0,.83,3.41,2.63,2.63,0,0,0,2.21,1.53H6.94A2.63,2.63,0,0,0,9.15,9.41,6.81,6.81,0,0,0,10,6a6.81,6.81,0,0,0-.83-3.41"
    transform="translate(-1.63 -1.06)" style="fill:#fff;opacity:0.5" />
  <path
    d="M9.11,2.63A2.62,2.62,0,0,0,6.93,1.12H4.68A2.62,2.62,0,0,0,2.5,2.63,6.78,6.78,0,0,0,1.68,6,6.78,6.78,0,0,0,2.5,9.37a2.62,2.62,0,0,0,2.18,1.51H6.93A2.62,2.62,0,0,0,9.11,9.37,6.78,6.78,0,0,0,9.93,6a6.78,6.78,0,0,0-.82-3.37m.06,3H7.67a7.2,7.2,0,0,0-.45-2.24H8.65a6,6,0,0,1,.52,2.24m-1-3H6.86a4.11,4.11,0,0,0-.56-.74h.63a1.67,1.67,0,0,1,1.27.74M2.43,6c0-2.24,1-4.12,2.25-4.12S6.93,3.76,6.93,6s-1,4.12-2.25,4.12S2.43,8.24,2.43,6m4.5,4.12H6.3a4.11,4.11,0,0,0,.56-.74H8.21a1.7,1.7,0,0,1-1.28.74m1.72-1.5H7.22a7.2,7.2,0,0,0,.45-2.24h1.5a6,6,0,0,1-.52,2.24"
    transform="translate(-1.63 -1.06)" style="opacity:0.9" />
  <path d="M2.43,6c0-2.24,1-4.12,2.25-4.12S6.93,3.76,6.93,6s-1,4.12-2.25,4.12S2.43,8.24,2.43,6"
    transform="translate(-1.63 -1.06)" style="isolation:isolate;opacity:0.20000000298023224" />
  <g style="opacity:0.7">
    <path d="M9.17,5.62H7.67a7.2,7.2,0,0,0-.45-2.24H8.65a6,6,0,0,1,.52,2.24" transform="translate(-1.63 -1.06)"
      style="fill:#fff;opacity:0.9" />
    <path d="M8.2,2.62H6.86a4.11,4.11,0,0,0-.56-.74h.63a1.67,1.67,0,0,1,1.27.74" transform="translate(-1.63 -1.06)"
      style="fill:#fff;opacity:0.9" />
    <path d="M6.93,10.12H6.3a4.11,4.11,0,0,0,.56-.74H8.21a1.7,1.7,0,0,1-1.28.74" transform="translate(-1.63 -1.06)"
      style="fill:#fff;opacity:0.9" />
    <path d="M8.65,8.62H7.22a7.2,7.2,0,0,0,.45-2.24h1.5a6,6,0,0,1-.52,2.24" transform="translate(-1.63 -1.06)"
      style="fill:#fff;opacity:0.9" />
  </g>
</svg>