<svg version="1.2" xmlns="http://www.w3.org/2000/svg" viewBox="0 0 512 512" width="512" height="512">
	<title>coin</title>
	<style>
		.s0 { fill: #f1d333 } 
		.s1 { fill: #000000 } 
		.s2 { fill: #f6e781 } 
		.s3 { fill: #f6e266 } 
		.s4 { fill: #f9efaf } 
	</style>
	<g id="Background">
		<path id="Path 0" class="s0" d="m316.1 107.5c-0.1 0.3 2.8 3.8 6.4 7.8 3.6 3.9 9.3 11 12.6 15.7 3.4 4.7 7.9 11.7 10.2 15.5 2.3 3.8 6 11.4 8.4 16.8 2.4 5.3 5.8 14.8 7.7 20.9 1.9 6.2 4.1 15.6 5.1 20.8 0.9 5.2 1.9 16 2.2 24 0.3 8.4 0.1 18.9-0.6 25-0.6 5.8-2.1 14.8-3.2 20-1.1 5.2-3.5 14-5.3 19.5-1.9 5.5-5.6 14.7-8.4 20.5-2.7 5.8-7.7 14.6-10.9 19.5-3.3 4.9-8.7 12.4-12 16.5-3.3 4.1-9.9 11.2-14.7 15.8-4.7 4.5-12.3 11-16.9 14.3-4.5 3.4-12.3 8.5-17.2 11.4-5 2.9-12.6 6.9-17 8.8-4.4 2-12.1 4.9-17 6.5-5 1.7-13.3 3.9-18.5 5-5.2 1.2-14.7 2.6-21 3.3-6.9 0.7-16.9 0.9-25 0.5-7.4-0.3-14.6-0.9-16-1.3-1.8-0.4-2.2-0.3-1.5 0.6 0.5 0.6 5.5 2.6 11 4.5 5.5 1.9 14.9 4.5 21 5.7 9.8 2.1 13.5 2.4 34 2.4 20.1-0.1 24.3-0.4 33.5-2.3 5.8-1.3 15.2-3.9 21-5.8 5.8-1.9 15-5.7 20.5-8.4 5.5-2.6 14.5-7.8 20-11.4 5.5-3.6 10.7-6.6 11.5-6.6 0.8 0 2.5 0.7 3.7 1.5 2.2 1.4 2.6 1.3 7-2.4 2.7-2.2 6-5.3 7.5-7 1.6-1.7 2.3-3.3 1.8-3.6-0.6-0.3-1-2-1-3.8-0.1-2.5 1.3-4.8 6.1-10.7 3.5-4.1 8.9-11.6 12.2-16.5 3.2-4.9 8.1-13.5 10.8-19 2.6-5.5 6.4-14.7 8.3-20.5 2-5.8 4.4-14.8 5.5-20 1.1-5.2 2.5-15.1 3-22 0.7-8.1 0.7-16.9 0.1-25-0.5-6.9-1.9-17-3-22.5-1.1-5.5-3.6-14.7-5.6-20.5-1.9-5.8-6.2-15.9-9.5-22.5-3.2-6.6-9-16.3-12.7-21.5-3.7-5.2-11.2-14.1-16.7-19.8-5.5-5.8-13.6-13.3-18-16.7-4.4-3.4-10.6-7.9-13.7-9.9-3.1-2-5.7-3.4-5.7-3.1z"/>
		<path id="Path 1" fill-rule="evenodd" class="s1" d="m260 26.5c26.7 0.2 41 0.8 49.8 1.9 6.7 0.9 17.3 2.7 23.5 4.1 6.1 1.4 16.8 4.4 23.7 6.7 6.9 2.3 19 7.4 27 11.4 8 3.9 19.2 10.3 25 14.2 5.8 3.9 14.1 10 18.5 13.5 4.4 3.6 13.2 11.8 19.6 18.3 6.3 6.6 14.9 16.4 19 21.9 4.1 5.5 9.7 13.8 12.6 18.5 2.8 4.7 7 12.3 9.3 17 2.4 4.7 6.2 13.4 8.6 19.5 2.4 6.1 5.9 17.1 7.8 24.5 1.9 7.4 4.4 20.3 5.6 28.5 1.9 12.7 2.1 17.9 1.7 34-0.3 10.4-1.2 23.7-2.2 29.5-0.9 5.8-3.2 16.6-5.1 24-1.9 7.4-5.4 18.4-7.8 24.5-2.4 6.1-6.1 14.6-8.3 19-2.3 4.4-6.5 12.1-9.4 17-2.9 4.9-8.7 13.5-12.8 19-4.2 5.5-12.5 15.1-18.6 21.4-6 6.2-14.4 14.2-18.5 17.6-4.1 3.5-12.7 9.8-19 14-6.3 4.2-18 10.9-26 14.9-8 4-20.9 9.3-28.7 11.9-7.9 2.6-19.8 5.8-26.5 7.1-6.8 1.4-20.2 3.2-29.8 4.2-14.1 1.3-24.1 1.5-51 1.1-21.5-0.4-37.9-1.1-45.7-2.1-6.8-0.9-17.4-2.7-23.5-4.1-6.2-1.4-16.7-4.4-23.3-6.6-6.6-2.2-17.6-6.7-24.5-10-6.9-3.3-16.3-8.4-21-11.2-4.7-2.8-12.9-8.4-18.2-12.4-5.4-4-15-12.4-21.4-18.6-6.4-6.1-15.3-15.7-19.7-21.2-4.4-5.5-10.7-14.1-14-19-3.2-4.9-9-15.3-12.8-23-3.8-7.7-8.5-18.5-10.4-24-2-5.5-4.9-15.2-6.5-21.5-1.6-6.3-3.8-17.9-4.9-25.8-1.4-9.4-2.1-19.4-2.1-29.4 0-8.4 0.7-20.7 1.5-27.3 0.9-6.6 2.7-17.2 4.1-23.5 1.4-6.3 4.4-16.9 6.6-23.5 2.2-6.6 6.5-17.4 9.7-24 3.1-6.6 8.1-16.1 11.1-21 3-4.9 8.8-13.5 12.9-19 4.1-5.5 12.7-15.3 19-21.9 6.4-6.5 15.2-14.7 19.6-18.3 4.4-3.6 12.7-9.6 18.5-13.4 5.8-3.9 15.7-9.6 22-12.9 6.3-3.2 14.4-7 18-8.4 3.6-1.5 7.3-2.6 8.3-2.6 0.9 0 2.8 1.1 4.2 2.5 1.4 1.4 2.5 3.7 2.5 5.3 0.1 1.5-0.7 3.5-1.7 4.4-1 1-7 4-13.3 6.8-6.3 2.8-15.9 7.6-21.3 10.8-5.4 3.1-14.7 9.3-20.5 13.6-5.9 4.4-15.4 12.5-21.1 18-5.7 5.6-13.2 13.7-16.8 18.1-3.5 4.4-9.4 12.5-13.1 18-3.6 5.5-9.4 15.6-12.8 22.5-3.4 6.9-7.9 17.2-9.9 23-2 5.8-4.7 15-6.1 20.5-1.4 5.5-3.2 14.3-4 19.5-0.8 5.2-1.7 16-2.1 24-0.3 8.7-0.1 19.5 0.6 27 0.7 6.9 2.3 17.9 3.7 24.5 1.3 6.6 4.4 17.9 6.8 25 2.4 7.1 6.6 17.7 9.4 23.5 2.8 5.8 7.4 14.3 10.2 19 2.9 4.7 8.4 12.8 12.3 18 3.9 5.2 12.7 15.2 19.6 22.1 6.9 6.9 17.1 15.9 22.6 20 5.5 4.1 14.5 10.1 20 13.4 5.5 3.2 14.9 8.1 21 10.8 6.1 2.7 15.7 6.5 21.5 8.3 5.8 1.9 15.7 4.5 22 5.9 6.3 1.3 16.9 2.9 23.5 3.6 7.4 0.7 18.3 1 28.5 0.6 9.2-0.3 21.6-1.5 28-2.6 6.3-1.1 17.1-3.6 24-5.6 6.9-2 16.3-5.2 21-7.1 4.7-2 13.2-6 19-9.1 5.8-3 14.1-7.9 18.5-10.9 4.4-2.9 11.1-7.8 15-10.9 3.9-3.1 10.8-9.3 15.5-13.8 4.7-4.5 11.7-12.1 15.6-16.7 4-4.7 10.2-13 13.9-18.5 3.6-5.5 9.7-16.1 13.4-23.5 3.7-7.4 8.8-19.8 11.3-27.5 2.5-7.7 5.5-18.7 6.7-24.5 1.1-5.8 2.5-14.6 3.1-19.5 0.5-4.9 1-15.5 1-23.5 0-8-0.5-18.6-1-23.5-0.6-4.9-2-13.7-3.1-19.5-1.2-5.8-4.2-16.8-6.7-24.5-2.5-7.7-7.6-20.1-11.3-27.5-3.7-7.4-9.7-18-13.4-23.5-3.7-5.5-9.3-13.2-12.5-17-3.2-3.8-9.7-11-14.6-15.9-4.9-4.9-12.5-11.8-16.9-15.3-4.4-3.5-11.6-8.8-16-11.7-4.4-3-12.7-7.9-18.5-10.9-5.8-3.1-15.1-7.4-20.7-9.6-5.7-2.3-14.9-5.4-20.5-7-5.7-1.6-14.1-3.6-18.8-4.4-4.7-0.9-12.9-2.1-18.2-2.7-5.4-0.5-15.5-1-22.5-1-7.1 0-18.2 0.8-24.8 1.6-6.6 0.9-14.5 1.8-17.5 2-4.4 0.4-5.8 0.2-7.3-1.3-1-1-1.8-3.3-1.8-5.3 0-2 0.8-4.2 1.8-5.2 1-1 5.4-2.4 9.8-3.3 4.4-0.8 13.8-2.1 21-2.9 9.7-1.1 22.6-1.4 50.5-1.1zm-27.5 42.9c18.9 0.3 23.7 0.8 34 3 6.6 1.4 16.3 3.9 21.5 5.6 5.2 1.8 16.3 6.5 24.5 10.6 8.3 4 18.9 10.2 23.7 13.6 4.8 3.5 12.3 9.5 16.7 13.3 4.5 3.8 11.6 11 15.9 15.8 4.2 4.8 10.5 12.7 13.9 17.5 3.4 4.8 8.9 13.9 12.2 20.2 3.3 6.3 7.5 15.6 9.4 20.5 1.9 4.9 4.6 13.5 6 19 1.5 5.5 3.4 14.7 4.3 20.5 1 6.4 1.6 16.9 1.6 27 0 10.1-0.6 20.6-1.6 27-0.9 5.8-2.5 14.1-3.7 18.5-1.1 4.4-3.2 11.4-4.5 15.5-1.4 4.1-5.2 13.1-8.5 20-3.3 6.9-9.3 17.4-13.3 23.5-4 6.1-10.2 14-13.7 17.7-3.6 3.9-7.3 6.8-8.4 6.8-1.1 0.1-3.2-0.8-4.7-2-2-1.4-2.8-2.9-2.8-5.2-0.1-2.6 1.3-4.9 6.1-10.8 3.5-4.1 8.9-11.6 12.2-16.5 3.2-4.9 8.1-13.5 10.8-19 2.6-5.5 6.4-14.7 8.3-20.5 2-5.8 4.4-14.8 5.5-20 1.1-5.2 2.5-15.1 3-22 0.7-8.1 0.7-16.9 0.1-25-0.5-6.9-1.9-17-3-22.5-1.1-5.5-3.6-14.7-5.6-20.5-1.9-5.8-6.2-15.9-9.5-22.5-3.2-6.6-9-16.3-12.7-21.5-3.7-5.2-11.4-14.3-17.2-20.3-5.8-6-14.8-14.2-20-18.1-5.2-4-14-9.7-19.5-12.8-5.5-3.2-14.7-7.6-20.5-9.9-5.8-2.3-15.4-5.4-21.5-6.9-6.1-1.6-15.5-3.4-21-4-6.3-0.8-16.5-1.1-27.5-0.8-12.3 0.4-20.5 1.2-27.5 2.7-5.5 1.2-14.5 3.5-20 5.3-5.5 1.7-16.1 6.2-23.5 10-7.4 3.7-17.8 9.8-23 13.5-5.2 3.8-14.9 12.2-21.5 18.8-6.6 6.6-15 16.3-18.7 21.5-3.7 5.2-9.6 15.1-13.2 22-3.5 6.9-7.9 17.4-9.9 23.5-2 6.1-4.6 15.7-5.8 21.5-2 9.2-2.3 13.3-2.3 33 0 19.7 0.3 23.8 2.3 33 1.2 5.8 3.8 15.4 5.8 21.5 2 6.1 6.4 16.6 9.9 23.5 3.6 6.9 9.5 16.8 13.2 22 3.7 5.2 12.1 14.9 18.7 21.5 6.6 6.6 16.3 15 21.5 18.8 5.2 3.7 15.8 9.8 23.5 13.7 7.7 3.8 18.1 8.2 23 9.8 4.9 1.7 13.9 4 20 5.3 9.8 2.1 13.5 2.4 34 2.4 20.1-0.1 24.3-0.4 33.5-2.3 5.8-1.3 15.2-3.9 21-5.8 5.8-1.9 15-5.7 20.5-8.4 5.5-2.6 14.5-7.8 20-11.4 5.5-3.6 10.8-6.6 11.8-6.6 0.9 0 2.9 1 4.3 2.3 2 1.6 2.6 3.1 2.5 5.7 0 1.9-0.7 4.1-1.3 4.8-0.7 0.8-5.6 4.1-10.8 7.5-5.2 3.3-14.9 8.7-21.5 11.8-6.6 3.2-16.3 7.1-21.5 8.8-5.2 1.7-13.3 3.9-18 5-4.7 1.1-13 2.5-18.5 3.2-6.4 0.7-16.9 1-29 0.6-14.9-0.4-21.5-1.1-30.5-3-6.3-1.4-16.4-4.1-22.5-6.1-6.1-2.1-15.9-6.1-22-9-6.1-3-15.1-8.1-20-11.3-4.9-3.3-12.4-8.7-16.5-12-4.1-3.3-11.6-10.3-16.6-15.4-4.9-5.2-11.9-13.2-15.3-17.9-3.5-4.7-8.9-12.8-11.9-18-3.1-5.2-7.8-14.7-10.5-21-2.7-6.3-6.2-16.2-7.8-22-1.6-5.8-3.7-14.6-4.6-19.5-1.3-6.8-1.7-14.5-1.7-31.5 0-17 0.4-24.7 1.7-31.5 0.9-4.9 3-13.7 4.6-19.5 1.6-5.8 5.2-15.9 8-22.5 2.8-6.6 7.5-16.1 10.5-21 3-4.9 8.2-12.8 11.7-17.5 3.4-4.7 10.4-12.7 15.3-17.9 5-5.1 12.5-12.1 16.6-15.4 4.1-3.3 11.6-8.7 16.5-12 4.9-3.2 13.9-8.3 20-11.2 6.1-2.9 14.4-6.5 18.5-8 4.1-1.4 12-3.8 17.5-5.2 5.5-1.3 13.8-3.1 18.5-3.9 6-0.9 15.1-1.2 30.5-1z"/>
		<path id="Path 2" class="s2" d="m342.1 74.7c0 0.5 3.7 4.6 8.2 9.3 4.5 4.7 11.4 12.8 15.3 18 4 5.2 9.4 13.1 12.1 17.5 2.8 4.4 6.8 11.6 9.1 16 2.2 4.4 5.6 11.8 7.5 16.5 2 4.7 5.2 13.9 7.2 20.5 2 6.6 3.8 14 4.1 16.5 0.2 2.5 2 10.1 3.9 17 1.9 6.9 4.2 17.2 5.1 23 0.9 6.3 1.6 17.1 1.6 27 0 10.1-0.6 20.6-1.6 27-0.9 5.8-2.5 14.1-3.7 18.5-1.1 4.4-3.2 11.4-4.5 15.5-1.4 4.1-5.2 13.1-8.5 20-3.3 6.9-9.3 17.4-13.4 23.5-4 6.1-9.8 13.8-12.9 17.2-3.1 3.5-6.6 6.6-7.9 6.9-1.2 0.3-3.2 0.1-4.5-0.5-2-1-3-0.4-9.6 5.6-6.1 5.6-7.3 7.2-6.7 8.8 0.4 1.1 0.5 3.1 0.2 4.5-0.5 1.7-3.4 4.4-9.1 8.3-4.7 3.2-14.6 8.9-22 12.5-7.4 3.7-16.2 7.6-19.5 8.6-3.3 1.1-7.1 2.7-8.5 3.6-1.4 1-7 3.5-12.5 5.8-5.5 2.2-15 5.5-21 7.2-6.1 1.7-16 3.9-22 5-6.1 1.1-17.5 2.5-25.5 3.1-10.2 0.7-18.8 0.6-29-0.1-8-0.6-16.4-1.4-18.7-1.8-2.4-0.4-4.3-0.4-4.3 0 0 0.5 5.1 2.4 11.2 4.3 6.2 1.9 16.5 4.6 22.8 5.9 6.3 1.4 16.9 3 23.5 3.7 7.4 0.7 18.3 1 28.5 0.6 9.2-0.3 21.6-1.5 28-2.6 6.3-1.1 17.1-3.6 24-5.6 6.9-2 16.3-5.2 21-7.1 4.7-2 13.2-6 19-9.1 5.8-3 14.1-7.9 18.5-10.9 4.4-2.9 11.1-7.8 15-10.9 3.9-3.1 10.8-9.3 15.5-13.8 4.7-4.5 11.7-12.1 15.6-16.7 4-4.7 10.2-13 13.9-18.5 3.6-5.5 9.7-16.1 13.4-23.5 3.7-7.4 8.8-19.8 11.3-27.5 2.5-7.7 5.5-18.7 6.7-24.5 1.1-5.8 2.5-14.6 3.1-19.5 0.5-4.9 1-15.5 1-23.5 0-8-0.5-18.6-1-23.5-0.6-4.9-2-13.7-3.1-19.5-1.2-5.8-4.1-16.6-6.5-24-2.5-7.4-7.1-18.9-10.3-25.5-3.1-6.6-8.1-15.8-11-20.5-3-4.7-7.9-11.9-11-15.9-3.1-4.1-8.9-11.1-13-15.5-4.1-4.5-10.6-11-14.5-14.5-3.9-3.5-11.2-9.4-16.1-13-5-3.7-10.2-7.5-11.7-8.4-1.5-1-2.7-1.4-2.7-1z"/>
		<path id="Path 3" class="s3" d="m208.5 84.6c-1.7 0.3-7.7 1.4-13.5 2.6-5.8 1.1-14.6 3.3-19.5 4.9-4.9 1.6-15.3 6.1-23 9.9-7.7 3.8-18.3 10-23.5 13.7-5.2 3.8-14.9 12.2-21.5 18.8-6.6 6.6-15 16.3-18.7 21.5-3.7 5.2-9.6 15.1-13.2 22-3.5 6.9-7.9 17.4-9.9 23.5-2 6.1-4.6 15.7-5.8 21.5-2 9.2-2.3 13.3-2.3 33 0 19.7 0.3 23.8 2.3 33 1.2 5.8 3.8 15.4 5.8 21.5 2 6.1 6.4 16.6 9.9 23.5 3.6 6.9 9.5 16.8 13.2 22 3.7 5.2 12.1 14.9 18.7 21.5 6.6 6.6 16.3 15 21.5 18.7 5.2 3.7 14.4 9.3 20.5 12.4 6.1 3.2 12.3 5.9 14 6 1.7 0.1 9.3 0.5 17 0.9 9 0.5 18.1 0.3 25.5-0.4 6.3-0.7 15.8-2.1 21-3.3 5.2-1.1 13.6-3.3 18.5-5 4.9-1.6 12.6-4.5 17-6.5 4.4-1.9 12.1-5.9 17-8.8 4.9-2.9 12.7-8 17.3-11.4 4.5-3.3 12.1-9.8 16.8-14.3 4.8-4.6 11.4-11.7 14.7-15.8 3.3-4.1 8.7-11.6 12-16.5 3.2-4.9 8.2-13.7 10.9-19.5 2.8-5.8 6.5-15 8.4-20.5 1.8-5.5 4.2-14.3 5.3-19.5 1.1-5.2 2.6-14.2 3.2-20 0.7-6.1 0.9-16.6 0.6-25-0.3-8-1.3-18.8-2.2-24-1-5.2-3.2-14.6-5.1-20.7-1.9-6.2-5.3-15.7-7.7-21-2.4-5.4-6.1-12.9-8.4-16.8-2.3-3.8-6.7-10.7-10-15.2-3.2-4.5-9.2-12-13.3-16.7-6.8-7.8-8.4-9-17.5-13.5-5.5-2.8-14.7-6.6-20.5-8.5-5.8-1.9-15-4.5-20.5-5.6-8-1.8-14.2-2.2-31-2.5-11.6-0.2-22.3-0.1-24 0.1z"/>
		<path id="Path 4" class="s4" d="m166.5 42.8c-8.8 2.5-8.9 2.5-8.7 5.6 0.2 1.9-0.4 3.8-1.5 4.8-1 1-7 4-13.3 6.8-6.3 2.8-15.9 7.6-21.3 10.8-5.4 3.1-14.7 9.3-20.5 13.6-5.9 4.4-15.4 12.5-21.1 18-5.7 5.6-13.2 13.7-16.8 18.1-3.5 4.4-9.4 12.5-13.1 18-3.6 5.5-9.4 15.6-12.8 22.5-3.4 6.9-7.9 17.2-9.9 23-2 5.8-4.7 15-6.1 20.5-1.4 5.5-3.2 14.3-4 19.5-0.8 5.2-1.7 16-2.1 24-0.3 8.7-0.1 19.5 0.6 27 0.7 6.9 2.3 17.9 3.7 24.5 1.3 6.6 4.4 17.9 6.8 25 2.4 7.1 6.6 17.7 9.4 23.5 2.8 5.8 7.4 14.3 10.2 19 2.9 4.7 8.4 12.8 12.3 18 3.9 5.2 12.7 15.2 19.6 22.1 6.9 6.9 17.1 15.9 22.6 20 5.5 4.1 14.3 10 19.5 13.1 5.2 3.1 13.6 7.5 18.5 9.8 4.9 2.3 10.3 4.3 12 4.5 1.7 0.2 7.3 1 12.5 1.6 5.2 0.7 17.4 1.2 27 1.2 11.2 0 21.8-0.7 29.5-1.8 6.6-0.9 18.1-3.3 25.5-5.1 7.4-1.9 18.7-5.5 25-8.1 6.3-2.5 12.4-5.2 13.5-6.1l2-1.4c-3.1 1-8.5 2.4-14 3.7-5.5 1.3-14.5 2.9-20 3.6-6.3 0.7-17 1-29 0.6-14.9-0.4-21.5-1.1-30.5-3-6.3-1.4-16.4-4.1-22.5-6.1-6.1-2.1-15.9-6.1-22-9-6.1-3-15.1-8.1-20-11.3-5-3.3-12.4-8.7-16.5-12-4.1-3.3-11.6-10.3-16.6-15.4-4.9-5.2-11.9-13.2-15.3-17.9-3.5-4.7-8.9-12.8-11.9-18-3.1-5.2-7.8-14.7-10.5-21-2.7-6.3-6.2-16.2-7.8-22-1.6-5.8-3.7-14.6-4.6-19.5-1.3-6.8-1.7-14.5-1.7-31.5 0-17 0.4-24.7 1.7-31.5 0.9-4.9 3-13.7 4.6-19.5 1.6-5.8 5.2-15.9 8-22.5 2.8-6.6 7.5-16.1 10.5-21 3-4.9 8.2-12.8 11.7-17.5 3.4-4.7 10.4-12.7 15.3-17.9 5-5.1 12.5-12.1 16.6-15.4 4.1-3.3 11.5-8.7 16.5-12 4.9-3.2 13.9-8.3 20-11.3 6.1-2.9 16.4-7.1 23-9.2 6.6-2.2 17.2-5 23.5-6.3 10.3-2.1 14.1-2.4 35.5-2.4 22.2 0.1 25 0.3 36.5 2.7 6.9 1.5 16.8 4.1 22 5.8 5.2 1.8 16.3 6.5 24.5 10.6 8.3 4 18.9 10.2 23.7 13.6 4.8 3.5 12.3 9.5 16.7 13.3 4.5 3.8 11.6 11 15.9 15.8 4.2 4.8 10.5 12.7 13.9 17.5 3.4 4.8 9.1 14.3 12.6 21.2 3.6 6.9 7.3 14.6 8.3 17.2 1.1 2.7 2 4.7 2.2 4.5 0.2-0.1-0.2-2.9-0.9-6.2-0.6-3.3-3.1-12.1-5.5-19.5-2.5-7.4-7.5-19.8-11.3-27.5-3.8-7.7-9.8-18.3-13.2-23.5-3.5-5.2-9.3-13.1-12.9-17.6-3.6-4.5-10.1-11.9-14.5-16.6-6.8-7.2-9.6-9.4-18.5-14.1-5.8-3.1-15.1-7.4-20.8-9.6-5.6-2.3-14.8-5.4-20.4-7-5.7-1.6-14.1-3.6-18.8-4.4-4.7-0.9-12.9-2.1-18.3-2.7-5.3-0.5-15.4-1-22.4-1-7.1 0-18.2 0.8-24.8 1.6-6.6 0.9-14.5 1.8-17.5 2.1-5.2 0.5-5.7 0.4-8.1-2.4l-2.6-3z"/>
		<path id="Path 5" class="s0" d="m324.2 46.6c0 0.5 3.8 2.8 8.6 5.1 4.8 2.3 12.6 6.7 17.5 9.7l8.7 5.6c22.4-0.1 23.3-0.2 21.5-1.6-1.1-0.8-7.4-3.7-14-6.5-6.6-2.8-17.2-6.6-23.5-8.4-6.3-1.8-13.1-3.6-15.1-4-2-0.4-3.7-0.3-3.7 0.1zm56.5 35.9c-0.4 0.3 4.7 5.9 11.3 12.5l12 12 32.5-0.1c-12.4-11.8-18.9-17.4-22.5-20.1l-6.5-4.9c-20.3 0.1-26.5 0.3-26.8 0.6zm35.3 40c0 0.3 2.4 4.2 5.3 8.8 3 4.5 6.5 10.1 7.8 12.5l2.4 4.2c27.5 0 35.5-0.3 35.5-0.7 0-0.5-1.8-3.7-4.1-7.3-2.3-3.6-6.1-9.1-8.5-12.2l-4.4-5.8c-26.4 0-34 0.2-34 0.5zm23.5 42.3c0.4 0.9 2.6 6.5 4.9 12.5l4.1 10.7c29.1 0 37.5-0.1 37.5-0.2 0-0.2-1.3-3.7-2.9-7.8-1.6-4.1-3.9-9.6-5-12.2l-2.1-4.8c-36.1 0-37.3 0.1-36.5 1.8zm14.9 49.5c1 6.1 2 11.8 2.2 12.5 0.3 0.9 5.1 1.2 19.4 1.2 14.5 0 19-0.3 19-1.2 0-0.7-1-6.4-2.2-12.6l-2.3-11.2h-38zm3.6 41.7v13.1l38.5-0.5v-25.1l-38.4-0.5zm-1.5 29.3c-0.2 0.7-1.2 6.3-2.2 12.5l-1.9 11.2 38 0.1c3.5-17.5 4.6-23.1 4.5-23.8 0-1-4.4-1.3-19-1.3-14.4 0-19.1 0.3-19.4 1.3zm-12.3 49.5c-2.2 5.9-4.3 11.5-4.6 12.5-0.6 1.6 0.6 1.7 17.8 1.7h18.5c3.3-7.3 5.5-13 7.1-17.2l2.9-7.8h-37.7zm-15.3 33.5c-1.3 2.4-4.7 8-7.6 12.5-3 4.6-5.4 8.5-5.4 8.8 0 0.3 7.7 0.5 17 0.5h17c6.8-8.9 10.6-14.4 12.9-18 2.3-3.6 4.2-6.9 4.1-7.3 0-0.4-8-0.7-17.8-0.7h-17.9zm-37 48.8c-6.3 6.5-11.3 12.1-11 12.4 0.3 0.3 6.4 0.6 13.5 0.6h13c10.1-7.6 16.6-13.2 21-17.4l8-7.6h-33zm-40.6 32.8c-3.9 2.6-11.8 7.2-17.5 10.1-5.7 3-9.9 5.6-9.4 5.9 0.6 0.2 6.4-1.1 13-2.8 6.6-1.7 17.2-5.2 23.5-7.7 6.3-2.5 13.7-5.6 16.3-6.9 2.6-1.3 4.7-2.6 4.7-2.9 0-0.3-5.3-0.5-11.7-0.4l-11.8 0.1z"/>
		<path id="Path 6" class="s1" d="m220 126.9c-1.4 0.4-4.3 1.7-6.5 2.8-2.2 1.1-5.9 4.1-8.3 6.7-2.3 2.5-5.1 6.4-6.2 8.6-1.9 3.8-2.2 4-6.5 4-2.5 0-6.9 0.9-9.8 2-2.8 1-7.2 3.6-9.6 5.7-2.4 2.1-5.4 5.6-6.7 7.8-1.3 2.2-2.8 5.6-3.4 7.5-0.6 1.9-1.1 6.4-1.1 10 0 3.7 0.8 8.6 1.8 11.4 1 2.9 3.9 7.3 6.8 10.4 2.8 3 7.2 6.4 10 7.8 2.8 1.3 7.4 2.7 10.3 3.1l5.2 0.8v104c-9.5 1-13.8 2.4-17.9 4.6-3.6 1.9-7.8 5.2-9.6 7.4-1.8 2.2-3.9 5.4-4.8 7-0.8 1.6-2 5.5-2.6 8.5-0.9 4.1-0.9 7-0.1 11.5 0.6 3.3 2.3 8.2 3.8 10.9 1.5 2.7 4.5 6.4 6.7 8.3 2.2 1.9 6 4.4 8.5 5.6 4.4 2.2 5.1 2.2 49.5 2.2h45c7.7-4.1 12-7.5 14.4-10.1 2.5-2.7 5.4-6.9 6.5-9.4 1.6-3.4 2.1-6.5 2.1-13-0.1-7.4-0.5-9.3-3-14.4-1.7-3.2-5-7.7-7.5-9.9-2.5-2.3-6.5-5-9-6-2.5-1.1-7.1-2.2-10.3-2.6l-5.7-0.6c0-60.8-0.2-66.4-1.5-68.3-1.1-1.6-2.5-2.2-5.3-2.2-2.5-0.1-4.3 0.6-5.7 2.1-1.9 2-2 3.7-2.3 39.3-0.2 23.3 0.1 38 0.8 39.6 0.5 1.4 2.1 3.1 3.5 3.7 1.4 0.7 5.6 1.3 9.5 1.3 4.1 0 8.6 0.7 10.7 1.6 2.1 0.8 4.7 2.3 5.7 3.2 1 0.9 2.7 3.5 3.7 5.7 1 2.2 1.9 5.6 1.9 7.5 0 1.9-0.8 5.3-1.8 7.5-1 2.2-3.6 5.4-5.7 7l-3.8 3c-81 0.5-82.9 0.4-86.7-1.5-2.2-1.1-4.9-3.2-5.9-4.8-1-1.5-2.4-4.6-3-7-0.6-2.3-0.8-5.4-0.5-7 0.4-1.5 1.7-4.6 3-7 1.7-2.9 3.7-4.8 6.7-6.2 3.1-1.5 6.3-2 12.5-2 7.5 0 8.5-0.2 10.7-2.5l2.5-2.5v-125c-4.7-4.7-5.9-5-12-5-4.1 0-8.6-0.7-10.7-1.6-2.1-0.8-4.9-2.5-6.1-3.7-1.3-1.2-3-3.4-3.8-5-0.8-1.5-1.5-4.8-1.5-7.5-0.1-2.8 0.6-6.3 1.7-8.6 1.1-2.2 3.4-5.1 5.3-6.5 2.9-2.2 4.8-2.7 12.5-3.2 5-0.3 10.1-1.1 11.4-1.7 1.5-0.8 2.7-3 3.7-6.7 0.8-3 2.7-6.9 4.3-8.7 1.5-1.7 4.2-3.7 6-4.5 1.7-0.7 5.2-1.3 7.7-1.3 2.5 0 5.5 0.5 6.8 1.1 1.2 0.6 3.5 2.3 5 3.8 1.6 1.4 3.4 3.5 4 4.6 0.8 1.4 1.4 13.2 1.7 37.6 0.5 33.9 0.6 35.8 2.5 37.8 1.4 1.5 3.2 2.2 5.8 2.1 2.7 0 4.1-0.6 5.2-2.3 1.3-1.9 1.5-7.7 1.3-39.2l-0.3-37c-3.8-7.8-6.7-11.8-9-14-2.2-2.3-6.2-5.2-9-6.5-3.8-1.8-7-2.5-13-2.7-4.4-0.1-9.1 0.1-10.5 0.6z"/>
		<path id="Path 7" class="s4" d="m221.1 142.4c-1.9 0.7-4.5 2.7-5.8 4.5-1.2 1.7-3 5.6-3.8 8.6-1 3.7-2.2 5.9-3.7 6.7-1.3 0.6-6.4 1.4-11.4 1.7-7.7 0.5-9.6 1-12.5 3.2-1.9 1.4-4.2 4.3-5.3 6.5-1.1 2.3-1.8 5.8-1.7 8.6 0 2.7 0.7 6 1.5 7.5 0.8 1.6 2.5 3.8 3.8 5 1.2 1.2 4 2.9 6.1 3.7 2.1 0.9 6.6 1.6 10.7 1.6 6.1 0 7.3 0.3 9.5 2.5l2.5 2.5v125c-4.7 4.8-5.7 5-13.2 5-6.2 0-9.4 0.5-12.5 2-3 1.4-5 3.3-6.7 6.2-1.3 2.4-2.6 5.5-3 7-0.3 1.6-0.1 4.7 0.5 7 0.6 2.4 2 5.5 3 7 1 1.6 3.7 3.7 5.9 4.8 3.8 1.9 5.7 2 45.3 1.7l41.4-0.2c5.9-4.6 8.5-7.8 9.5-10 1-2.2 1.8-5.6 1.8-7.5 0-1.9-0.9-5.3-1.9-7.5-1-2.2-2.7-4.8-3.7-5.7-1-0.9-3.6-2.4-5.6-3.2-2.2-0.9-6.7-1.6-10.8-1.6-3.9 0-8.1-0.6-9.5-1.3-1.4-0.6-3-2.3-3.5-3.7-0.7-1.6-1-16.3-0.8-39.6 0.3-35.6 0.4-37.3 2.3-39.3 1.1-1.2 2.8-2.2 3.8-2.1 1.5 0 1.7-1.2 1.7-10.5 0-9.3-0.2-10.5-1.7-10.5-1 0.1-2.7-0.9-3.8-2.1-1.9-2-2-3.9-2.5-37.8-0.3-24.4-0.9-36.2-1.7-37.6-0.6-1.1-2.4-3.2-4-4.6-1.5-1.5-3.8-3.2-5-3.8-1.3-0.6-4.4-1.1-7-1.1-2.7 0.1-6.3 0.7-8.2 1.4z"/>
	</g>
</svg>